# Blender 4.4.3
# www.blender.org
o Cube
v 0.000000 0.000000 -0.726287
v 0.000000 0.500000 1.000000
v 1.000000 0.000000 1.000000
v -1.000000 0.000000 1.000000
v -0.500000 0.000000 0.136857
v -1.000000 0.273344 1.000000
v -1.000000 0.000000 0.136857
vn -0.0000 -0.0000 1.0000
vn -0.4329 0.8658 -0.2508
vn -0.0000 -1.0000 -0.0000
vn 0.4329 0.8658 -0.2508
vn -0.1387 0.9182 -0.3711
vn -1.0000 -0.0000 -0.0000
s 0
f 3//1 2//1 4//1
f 2//2 1//2 5//2
f 1//3 3//3 4//3 5//3
f 1//4 2//4 3//4
f 2//5 5//5 7//5 6//5
f 4//6 6//6 7//6
f 5//3 4//3 7//3
f 4//1 2//1 6//1
